<svg width="163" height="155" viewBox="0 0 163 155" fill="none" xmlns="http://www.w3.org/2000/svg">
<mask id="path-1-inside-1_0_1" fill="white">
<path d="M106.048 57.952C104.67 53.3182 101.866 49.263 98.0542 46.3891C94.2423 43.5152 89.6254 41.976 84.8897 42.0003C80.154 42.0246 75.5524 43.6111 71.7689 46.5239C67.9853 49.4368 65.2218 53.5205 63.8891 58.1682L76.5556 61.9673C77.0887 60.1082 78.1941 58.4747 79.7075 57.3096C81.221 56.1444 83.0616 55.5098 84.9559 55.5001C86.8501 55.4904 88.6969 56.1061 90.2217 57.2556C91.7464 58.4052 92.8678 60.0273 93.4191 61.8808L106.048 57.952Z"/>
</mask>
<path d="M106.048 57.952C104.67 53.3182 101.866 49.263 98.0542 46.3891C94.2423 43.5152 89.6254 41.976 84.8897 42.0003C80.154 42.0246 75.5524 43.6111 71.7689 46.5239C67.9853 49.4368 65.2218 53.5205 63.8891 58.1682L76.5556 61.9673C77.0887 60.1082 78.1941 58.4747 79.7075 57.3096C81.221 56.1444 83.0616 55.5098 84.9559 55.5001C86.8501 55.4904 88.6969 56.1061 90.2217 57.2556C91.7464 58.4052 92.8678 60.0273 93.4191 61.8808L106.048 57.952Z" stroke="#040401" stroke-opacity="0.61" stroke-width="6" mask="url(#path-1-inside-1_0_1)"/>
<mask id="path-2-inside-2_0_1" fill="white">
<path d="M61.2556 98.326C62.8326 102.791 65.8084 106.629 69.7407 109.268C73.673 111.907 78.3519 113.206 83.0819 112.973C87.8119 112.74 92.3405 110.988 95.9946 107.975C99.6486 104.963 102.233 100.851 103.364 96.2526L90.5455 93.101C90.0932 94.9406 89.0595 96.585 87.5978 97.79C86.1362 98.995 84.3248 99.6962 82.4328 99.7894C80.5408 99.8825 78.6692 99.3627 77.0963 98.3071C75.5234 97.2515 74.333 95.7166 73.7022 93.9304L61.2556 98.326Z"/>
</mask>
<path d="M61.2556 98.326C62.8326 102.791 65.8084 106.629 69.7407 109.268C73.673 111.907 78.3519 113.206 83.0819 112.973C87.8119 112.74 92.3405 110.988 95.9946 107.975C99.6486 104.963 102.233 100.851 103.364 96.2526L90.5455 93.101C90.0932 94.9406 89.0595 96.585 87.5978 97.79C86.1362 98.995 84.3248 99.6962 82.4328 99.7894C80.5408 99.8825 78.6692 99.3627 77.0963 98.3071C75.5234 97.2515 74.333 95.7166 73.7022 93.9304L61.2556 98.326Z" stroke="#040401" stroke-opacity="0.67" stroke-width="6" mask="url(#path-2-inside-2_0_1)"/>
<mask id="path-3-inside-3_0_1" fill="white">
<path d="M63.6535 60.6777C62.6901 64.5416 62.7936 68.5945 63.9527 72.4042C65.1119 76.2138 67.2834 79.6375 70.2356 82.3099L79.0943 72.524C77.9134 71.455 77.0448 70.0855 76.5811 68.5617C76.1174 67.0378 76.0761 65.4166 76.4614 63.8711L63.6535 60.6777Z"/>
</mask>
<path d="M63.6535 60.6777C62.6901 64.5416 62.7936 68.5945 63.9527 72.4042C65.1119 76.2138 67.2834 79.6375 70.2356 82.3099L79.0943 72.524C77.9134 71.455 77.0448 70.0855 76.5811 68.5617C76.1174 67.0378 76.0761 65.4166 76.4614 63.8711L63.6535 60.6777Z" stroke="#201E07" stroke-opacity="0.61" stroke-width="6" mask="url(#path-3-inside-3_0_1)"/>
<mask id="path-4-inside-4_0_1" fill="white">
<path d="M103.519 93.5741C104.389 89.4812 104.074 85.225 102.61 81.305C101.147 77.385 98.5957 73.9636 95.2562 71.4423L87.3025 81.9769C88.6383 82.9854 89.6587 84.354 90.2441 85.922C90.8296 87.49 90.9557 89.1925 90.6077 90.8296L103.519 93.5741Z"/>
</mask>
<path d="M103.519 93.5741C104.389 89.4812 104.074 85.225 102.61 81.305C101.147 77.385 98.5957 73.9636 95.2562 71.4423L87.3025 81.9769C88.6383 82.9854 89.6587 84.354 90.2441 85.922C90.8296 87.49 90.9557 89.1925 90.6077 90.8296L103.519 93.5741Z" stroke="#201E07" stroke-opacity="0.61" stroke-width="6" mask="url(#path-4-inside-4_0_1)"/>
<mask id="path-5-inside-5_0_1" fill="white">
<path d="M94.7824 71.1862C92.1947 69.1028 89.1782 67.6176 85.9491 66.8372L83.6429 76.3786C85.4647 76.819 87.1665 77.6568 88.6264 78.8322L94.7824 71.1862Z"/>
</mask>
<path d="M94.7824 71.1862C92.1947 69.1028 89.1782 67.6176 85.9491 66.8372L83.6429 76.3786C85.4647 76.819 87.1665 77.6568 88.6264 78.8322L94.7824 71.1862Z" stroke="#60591F" stroke-opacity="0.61" stroke-width="6" mask="url(#path-5-inside-5_0_1)"/>
<mask id="path-6-inside-6_0_1" fill="white">
<path d="M70.9381 83.7638C73.4299 85.9609 76.3769 87.5796 79.5679 88.5038L82.299 79.0746C80.4988 78.5532 78.8362 77.64 77.4304 76.4005L70.9381 83.7638Z"/>
</mask>
<path d="M70.9381 83.7638C73.4299 85.9609 76.3769 87.5796 79.5679 88.5038L82.299 79.0746C80.4988 78.5532 78.8362 77.64 77.4304 76.4005L70.9381 83.7638Z" stroke="#60591F" stroke-opacity="0.61" stroke-width="6" mask="url(#path-6-inside-6_0_1)"/>
<path d="M43.5824 89L40.7699 67.1818H47.375L48.142 80.6051H48.3125L54.0653 67.1818H59.2642L60.5852 80.6477H60.7557L65.9545 67.1818H72.5597L62.5028 89H56.8352L55.1733 76.8125H55.0028L49.25 89H43.5824Z" fill="#251F1F"/>
<path d="M108.565 89H100.043L103.665 67.1818H111.847C114.091 67.1818 115.966 67.6328 117.472 68.5348C118.977 69.4368 120.046 70.7259 120.678 72.402C121.31 74.0781 121.435 76.0739 121.051 78.3892C120.682 80.6193 119.933 82.5263 118.803 84.1101C117.681 85.6939 116.246 86.9048 114.499 87.7429C112.759 88.581 110.781 89 108.565 89ZM106.797 83.9716H108.949C110.028 83.9716 110.991 83.7834 111.836 83.407C112.688 83.0234 113.398 82.3842 113.967 81.4893C114.542 80.5874 114.957 79.3551 115.213 77.7926C115.455 76.3153 115.447 75.1754 115.192 74.3729C114.936 73.5632 114.45 73.0021 113.732 72.6896C113.015 72.37 112.088 72.2102 110.952 72.2102H108.757L106.797 83.9716Z" fill="#251F1F"/>
</svg>
