<svg width="112" height="112" viewBox="0 0 112 112" fill="none" xmlns="http://www.w3.org/2000/svg">
<mask id="path-1-inside-1_0_1" fill="white">
<path d="M64.6321 48.5263C64.0996 46.7758 63.0165 45.2438 61.5437 44.1581C60.0709 43.0724 58.2871 42.4909 56.4574 42.5001C54.6277 42.5093 52.8498 43.1086 51.388 44.209C49.9261 45.3095 48.8584 46.8522 48.3435 48.608L53.2374 50.0432C53.4434 49.3409 53.8705 48.7238 54.4552 48.2836C55.0399 47.8434 55.7511 47.6037 56.483 47.6C57.2148 47.5964 57.9284 47.829 58.5175 48.2632C59.1066 48.6975 59.5398 49.3103 59.7528 50.0105L64.6321 48.5263Z"/>
</mask>
<path d="M64.6321 48.5263C64.0996 46.7758 63.0165 45.2438 61.5437 44.1581C60.0709 43.0724 58.2871 42.4909 56.4574 42.5001C54.6277 42.5093 52.8498 43.1086 51.388 44.209C49.9261 45.3095 48.8584 46.8522 48.3435 48.608L53.2374 50.0432C53.4434 49.3409 53.8705 48.7238 54.4552 48.2836C55.0399 47.8434 55.7511 47.6037 56.483 47.6C57.2148 47.5964 57.9284 47.829 58.5175 48.2632C59.1066 48.6975 59.5398 49.3103 59.7528 50.0105L64.6321 48.5263Z" stroke="#918624" stroke-opacity="0.61" stroke-width="2" mask="url(#path-1-inside-1_0_1)"/>
<mask id="path-2-inside-2_0_1" fill="white">
<path d="M47.4851 63.8305C48.0944 65.5558 49.2442 67.0384 50.7635 68.058C52.2828 69.0776 54.0905 69.5797 55.918 69.4897C57.7455 69.3997 59.4952 68.7224 60.907 67.5585C62.3188 66.3946 63.3173 64.8062 63.7542 63.0294L58.8017 61.8118C58.6269 62.5225 58.2275 63.1578 57.6628 63.6234C57.0981 64.089 56.3982 64.3599 55.6672 64.3959C54.9362 64.4319 54.2131 64.231 53.6054 63.8232C52.9977 63.4154 52.5378 62.8223 52.294 62.1322L47.4851 63.8305Z"/>
</mask>
<path d="M47.4851 63.8305C48.0944 65.5558 49.2442 67.0384 50.7635 68.058C52.2828 69.0776 54.0905 69.5797 55.918 69.4897C57.7455 69.3997 59.4952 68.7224 60.907 67.5585C62.3188 66.3946 63.3173 64.8062 63.7542 63.0294L58.8017 61.8118C58.6269 62.5225 58.2275 63.1578 57.6628 63.6234C57.0981 64.089 56.3982 64.3599 55.6672 64.3959C54.9362 64.4319 54.2131 64.231 53.6054 63.8232C52.9977 63.4154 52.5378 62.8223 52.294 62.1322L47.4851 63.8305Z" stroke="#040401" stroke-opacity="0.67" stroke-width="2" mask="url(#path-2-inside-2_0_1)"/>
<mask id="path-3-inside-3_0_1" fill="white">
<path d="M48.2525 49.4437C47.8803 50.9365 47.9202 52.5024 48.3681 53.9743C48.816 55.4463 49.655 56.769 50.7956 57.8016L54.2182 54.0206C53.762 53.6076 53.4264 53.0785 53.2472 52.4897C53.0681 51.901 53.0521 51.2746 53.201 50.6775L48.2525 49.4437Z"/>
</mask>
<path d="M48.2525 49.4437C47.8803 50.9365 47.9202 52.5024 48.3681 53.9743C48.816 55.4463 49.655 56.769 50.7956 57.8016L54.2182 54.0206C53.762 53.6076 53.4264 53.0785 53.2472 52.4897C53.0681 51.901 53.0521 51.2746 53.201 50.6775L48.2525 49.4437Z" stroke="#60591F" stroke-opacity="0.61" stroke-width="2" mask="url(#path-3-inside-3_0_1)"/>
<mask id="path-4-inside-4_0_1" fill="white">
<path d="M63.8143 62.2672C64.1504 60.6859 64.0286 59.0415 63.4631 57.5269C62.8976 56.0124 61.912 54.6905 60.6217 53.7164L57.5487 57.7865C58.0648 58.1762 58.4591 58.705 58.6852 59.3108C58.9114 59.9166 58.9602 60.5744 58.8257 61.2069L63.8143 62.2672Z"/>
</mask>
<path d="M63.8143 62.2672C64.1504 60.6859 64.0286 59.0415 63.4631 57.5269C62.8976 56.0124 61.912 54.6905 60.6217 53.7164L57.5487 57.7865C58.0648 58.1762 58.4591 58.705 58.6852 59.3108C58.9114 59.9166 58.9602 60.5744 58.8257 61.2069L63.8143 62.2672Z" stroke="#201E07" stroke-opacity="0.61" stroke-width="2" mask="url(#path-4-inside-4_0_1)"/>
<mask id="path-5-inside-5_0_1" fill="white">
<path d="M60.2075 53.4595C59.2309 52.6733 58.0926 52.1129 56.8739 51.8183L56.0036 55.4191C56.6911 55.5853 57.3334 55.9015 57.8843 56.3451L60.2075 53.4595Z"/>
</mask>
<path d="M60.2075 53.4595C59.2309 52.6733 58.0926 52.1129 56.8739 51.8183L56.0036 55.4191C56.6911 55.5853 57.3334 55.9015 57.8843 56.3451L60.2075 53.4595Z" stroke="#60591F" stroke-opacity="0.61" stroke-width="2" mask="url(#path-5-inside-5_0_1)"/>
<mask id="path-6-inside-6_0_1" fill="white">
<path d="M51.209 58.2062C52.1494 59.0353 53.2616 59.6462 54.4658 59.995L55.4964 56.4365C54.8171 56.2397 54.1896 55.8951 53.6591 55.4274L51.209 58.2062Z"/>
</mask>
<path d="M51.209 58.2062C52.1494 59.0353 53.2616 59.6462 54.4658 59.995L55.4964 56.4365C54.8171 56.2397 54.1896 55.8951 53.6591 55.4274L51.209 58.2062Z" stroke="#201E07" stroke-opacity="0.61" stroke-width="2" mask="url(#path-6-inside-6_0_1)"/>
<path d="M43.8608 60L42.9233 52.7273H45.125L45.3807 57.2017H45.4375L47.3551 52.7273H49.0881L49.5284 57.2159H49.5852L51.3182 52.7273H53.5199L50.1676 60H48.2784L47.7244 55.9375H47.6676L45.75 60H43.8608Z" fill="#251F1F"/>
<path d="M64.8551 60H62.0142L63.2216 52.7273H65.9489C66.697 52.7273 67.322 52.8776 67.8239 53.1783C68.3258 53.4789 68.6821 53.9086 68.8928 54.4673C69.1035 55.026 69.1449 55.6913 69.017 56.4631C68.8939 57.2064 68.6442 57.8421 68.2678 58.37C67.8937 58.898 67.4155 59.3016 66.8331 59.581C66.2531 59.8603 65.5938 60 64.8551 60ZM64.2656 58.3239H64.983C65.3428 58.3239 65.6636 58.2611 65.9453 58.1357C66.2294 58.0078 66.4661 57.7947 66.6555 57.4964C66.8473 57.1958 66.9858 56.785 67.071 56.2642C67.1515 55.7718 67.1491 55.3918 67.0639 55.1243C66.9787 54.8544 66.8165 54.6674 66.5774 54.5632C66.3383 54.4567 66.0294 54.4034 65.6506 54.4034H64.919L64.2656 58.3239Z" fill="#251F1F"/>
</svg>
