<svg width="175" height="155" viewBox="0 0 175 155" fill="none" xmlns="http://www.w3.org/2000/svg">
<mask id="path-1-inside-1_0_1" fill="white">
<path d="M111.048 57.952C109.67 53.3182 106.866 49.263 103.054 46.3891C99.2423 43.5152 94.6254 41.976 89.8897 42.0003C85.154 42.0246 80.5524 43.6111 76.7689 46.5239C72.9853 49.4368 70.2218 53.5205 68.8891 58.1682L81.5556 61.9673C82.0887 60.1082 83.1941 58.4747 84.7075 57.3096C86.221 56.1444 88.0616 55.5098 89.9559 55.5001C91.8501 55.4904 93.6969 56.1061 95.2217 57.2556C96.7464 58.4052 97.8678 60.0273 98.4191 61.8808L111.048 57.952Z"/>
</mask>
<path d="M111.048 57.952C109.67 53.3182 106.866 49.263 103.054 46.3891C99.2423 43.5152 94.6254 41.976 89.8897 42.0003C85.154 42.0246 80.5524 43.6111 76.7689 46.5239C72.9853 49.4368 70.2218 53.5205 68.8891 58.1682L81.5556 61.9673C82.0887 60.1082 83.1941 58.4747 84.7075 57.3096C86.221 56.1444 88.0616 55.5098 89.9559 55.5001C91.8501 55.4904 93.6969 56.1061 95.2217 57.2556C96.7464 58.4052 97.8678 60.0273 98.4191 61.8808L111.048 57.952Z" fill="#898128" fill-opacity="0.6" stroke="#040401" stroke-opacity="0.61" stroke-width="6" mask="url(#path-1-inside-1_0_1)"/>
<mask id="path-2-inside-2_0_1" fill="white">
<path d="M66.2556 97.326C67.8326 101.791 70.8084 105.629 74.7407 108.268C78.673 110.907 83.3519 112.206 88.0819 111.973C92.8119 111.74 97.3405 109.988 100.995 106.975C104.649 103.963 107.233 99.8514 108.364 95.2526L95.5455 92.101C95.0932 93.9406 94.0595 95.585 92.5978 96.79C91.1362 97.995 89.3248 98.6962 87.4328 98.7894C85.5408 98.8825 83.6692 98.3627 82.0963 97.3071C80.5234 96.2515 79.333 94.7166 78.7022 92.9304L66.2556 97.326Z"/>
</mask>
<path d="M66.2556 97.326C67.8326 101.791 70.8084 105.629 74.7407 108.268C78.673 110.907 83.3519 112.206 88.0819 111.973C92.8119 111.74 97.3405 109.988 100.995 106.975C104.649 103.963 107.233 99.8514 108.364 95.2526L95.5455 92.101C95.0932 93.9406 94.0595 95.585 92.5978 96.79C91.1362 97.995 89.3248 98.6962 87.4328 98.7894C85.5408 98.8825 83.6692 98.3627 82.0963 97.3071C80.5234 96.2515 79.333 94.7166 78.7022 92.9304L66.2556 97.326Z" fill="#898128" fill-opacity="0.6" stroke="#040401" stroke-opacity="0.67" stroke-width="6" mask="url(#path-2-inside-2_0_1)"/>
<mask id="path-3-inside-3_0_1" fill="white">
<path d="M68.6535 60.6777C67.6901 64.5416 67.7936 68.5945 68.9527 72.4042C70.1119 76.2138 72.2834 79.6375 75.2356 82.3099L84.0943 72.524C82.9134 71.455 82.0448 70.0855 81.5811 68.5617C81.1174 67.0378 81.0761 65.4166 81.4614 63.8711L68.6535 60.6777Z"/>
</mask>
<path d="M68.6535 60.6777C67.6901 64.5416 67.7936 68.5945 68.9527 72.4042C70.1119 76.2138 72.2834 79.6375 75.2356 82.3099L84.0943 72.524C82.9134 71.455 82.0448 70.0855 81.5811 68.5617C81.1174 67.0378 81.0761 65.4166 81.4614 63.8711L68.6535 60.6777Z" fill="#4B4613" stroke="#222008" stroke-opacity="0.61" stroke-width="6" mask="url(#path-3-inside-3_0_1)"/>
<mask id="path-4-inside-4_0_1" fill="white">
<path d="M108.519 93.5741C109.389 89.4812 109.074 85.225 107.61 81.305C106.147 77.385 103.596 73.9636 100.256 71.4423L92.3025 81.9769C93.6383 82.9854 94.6587 84.354 95.2441 85.922C95.8296 87.49 95.9557 89.1925 95.6077 90.8296L108.519 93.5741Z"/>
</mask>
<path d="M108.519 93.5741C109.389 89.4812 109.074 85.225 107.61 81.305C106.147 77.385 103.596 73.9636 100.256 71.4423L92.3025 81.9769C93.6383 82.9854 94.6587 84.354 95.2441 85.922C95.8296 87.49 95.9557 89.1925 95.6077 90.8296L108.519 93.5741Z" fill="#4B4613" stroke="#222008" stroke-opacity="0.61" stroke-width="6" mask="url(#path-4-inside-4_0_1)"/>
<mask id="path-5-inside-5_0_1" fill="white">
<path d="M99.7824 71.1862C97.1947 69.1028 94.1782 67.6176 90.9491 66.8372L88.6429 76.3786C90.4647 76.819 92.1665 77.6568 93.6264 78.8322L99.7824 71.1862Z"/>
</mask>
<path d="M99.7824 71.1862C97.1947 69.1028 94.1782 67.6176 90.9491 66.8372L88.6429 76.3786C90.4647 76.819 92.1665 77.6568 93.6264 78.8322L99.7824 71.1862Z" fill="#4B4613" fill-opacity="0.6" stroke="#4B4613" stroke-opacity="0.61" stroke-width="6" mask="url(#path-5-inside-5_0_1)"/>
<mask id="path-6-inside-6_0_1" fill="white">
<path d="M75.9381 83.7638C78.4299 85.9609 81.3769 87.5796 84.5679 88.5038L87.299 79.0746C85.4988 78.5532 83.8362 77.64 82.4304 76.4005L75.9381 83.7638Z"/>
</mask>
<path d="M75.9381 83.7638C78.4299 85.9609 81.3769 87.5796 84.5679 88.5038L87.299 79.0746C85.4988 78.5532 83.8362 77.64 82.4304 76.4005L75.9381 83.7638Z" fill="#4B4613" fill-opacity="0.6" stroke="#4B4613" stroke-opacity="0.61" stroke-width="6" mask="url(#path-6-inside-6_0_1)"/>
<path d="M119.278 90H109.051L113.398 63.8182H123.216C125.909 63.8182 128.159 64.3594 129.966 65.4418C131.773 66.5241 133.055 68.071 133.814 70.0824C134.572 72.0937 134.722 74.4886 134.261 77.267C133.818 79.9432 132.919 82.2315 131.564 84.1321C130.217 86.0327 128.496 87.4858 126.399 88.4915C124.311 89.4972 121.938 90 119.278 90ZM117.156 83.9659H119.739C121.034 83.9659 122.189 83.7401 123.203 83.2884C124.226 82.8281 125.078 82.0611 125.76 80.9872C126.45 79.9048 126.949 78.4261 127.256 76.5511C127.545 74.7784 127.537 73.4105 127.23 72.4474C126.923 71.4759 126.339 70.8026 125.479 70.4276C124.618 70.044 123.506 69.8523 122.142 69.8523H119.509L117.156 83.9659Z" fill="#DBC819"/>
<path d="M43.6989 90L40.3239 63.8182H48.25L49.1705 79.9261H49.375L56.2784 63.8182H62.517L64.1023 79.9773H64.3068L70.5455 63.8182H78.4716L66.4034 90H59.6023L57.608 75.375H57.4034L50.5 90H43.6989Z" fill="#DBC819"/>
</svg>
