<svg width="508" height="484" viewBox="0 0 508 484" fill="none" xmlns="http://www.w3.org/2000/svg">
<mask id="path-1-inside-1_0_1" fill="white">
<path d="M395.806 136.723C388.288 112.112 372.997 90.5748 352.205 75.3111C331.412 60.0474 306.229 51.8725 280.398 52.0015C254.567 52.1305 229.468 60.5565 208.83 76.0271C188.193 91.4977 173.119 113.187 165.85 137.871L234.94 158.048C237.848 148.175 243.877 139.499 252.132 133.311C260.387 127.123 270.427 123.752 280.759 123.701C291.092 123.649 301.165 126.919 309.482 133.024C317.799 139.13 323.915 147.745 326.922 157.589L395.806 136.723Z"/>
</mask>
<path d="M395.806 136.723C388.288 112.112 372.997 90.5748 352.205 75.3111C331.412 60.0474 306.229 51.8725 280.398 52.0015C254.567 52.1305 229.468 60.5565 208.83 76.0271C188.193 91.4977 173.119 113.187 165.85 137.871L234.94 158.048C237.848 148.175 243.877 139.499 252.132 133.311C260.387 127.123 270.427 123.752 280.759 123.701C291.092 123.649 301.165 126.919 309.482 133.024C317.799 139.13 323.915 147.745 326.922 157.589L395.806 136.723Z" fill="#898128" fill-opacity="0.6" stroke="#040401" stroke-opacity="0.61" stroke-width="24" mask="url(#path-1-inside-1_0_1)"/>
<mask id="path-2-inside-2_0_1" fill="white">
<path d="M151.82 351.627C160.386 375.781 176.55 396.538 197.91 410.812C219.269 425.086 244.684 432.116 270.377 430.856C296.069 429.596 320.668 420.114 340.516 403.819C360.364 387.525 374.402 365.287 380.544 340.412L310.918 323.365C308.461 333.315 302.846 342.21 294.906 348.728C286.967 355.246 277.128 359.038 266.851 359.542C256.574 360.046 246.408 357.234 237.864 351.525C229.32 345.815 222.854 337.512 219.428 327.851L151.82 351.627Z"/>
</mask>
<path d="M151.82 351.627C160.386 375.781 176.55 396.538 197.91 410.812C219.269 425.086 244.684 432.116 270.377 430.856C296.069 429.596 320.668 420.114 340.516 403.819C360.364 387.525 374.402 365.287 380.544 340.412L310.918 323.365C308.461 333.315 302.846 342.21 294.906 348.728C286.967 355.246 277.128 359.038 266.851 359.542C256.574 360.046 246.408 357.234 237.864 351.525C229.32 345.815 222.854 337.512 219.428 327.851L151.82 351.627Z" fill="#898128" fill-opacity="0.6" stroke="#040401" stroke-opacity="0.67" stroke-width="24" mask="url(#path-2-inside-2_0_1)"/>
<mask id="path-3-inside-3_0_1" fill="white">
<path d="M164.565 146.59C159.31 167.578 159.874 189.593 166.197 210.286C172.52 230.98 184.364 249.576 200.467 264.093L248.787 210.937C242.346 205.131 237.608 197.692 235.079 189.414C232.55 181.137 232.324 172.331 234.426 163.936L164.565 146.59Z"/>
</mask>
<path d="M164.565 146.59C159.31 167.578 159.874 189.593 166.197 210.286C172.52 230.98 184.364 249.576 200.467 264.093L248.787 210.937C242.346 205.131 237.608 197.692 235.079 189.414C232.55 181.137 232.324 172.331 234.426 163.936L164.565 146.59Z" fill="#4B4613" stroke="#222008" stroke-opacity="0.61" stroke-width="24" mask="url(#path-3-inside-3_0_1)"/>
<mask id="path-4-inside-4_0_1" fill="white">
<path d="M381.389 331.345C386.114 309.114 384.402 285.995 376.452 264.702C368.502 243.409 354.645 224.825 336.505 211.13L293.302 268.352C300.558 273.83 306.101 281.264 309.281 289.781C312.461 298.298 313.146 307.545 311.255 316.438L381.389 331.345Z"/>
</mask>
<path d="M381.389 331.345C386.114 309.114 384.402 285.995 376.452 264.702C368.502 243.409 354.645 224.825 336.505 211.13L293.302 268.352C300.558 273.83 306.101 281.264 309.281 289.781C312.461 298.298 313.146 307.545 311.255 316.438L381.389 331.345Z" fill="#4B4613" stroke="#222008" stroke-opacity="0.61" stroke-width="24" mask="url(#path-4-inside-4_0_1)"/>
<mask id="path-5-inside-5_0_1" fill="white">
<path d="M331.063 205.519C317.359 194.485 301.383 186.62 284.282 182.486L272.068 233.018C281.716 235.35 290.729 239.788 298.461 246.012L331.063 205.519Z"/>
</mask>
<path d="M331.063 205.519C317.359 194.485 301.383 186.62 284.282 182.486L272.068 233.018C281.716 235.35 290.729 239.788 298.461 246.012L331.063 205.519Z" fill="#4B4613" fill-opacity="0.6" stroke="#4B4613" stroke-opacity="0.61" stroke-width="24" mask="url(#path-5-inside-5_0_1)"/>
<mask id="path-6-inside-6_0_1" fill="white">
<path d="M204.783 272.13C217.98 283.766 233.587 292.339 250.487 297.234L264.951 247.296C255.417 244.535 246.612 239.698 239.167 233.134L204.783 272.13Z"/>
</mask>
<path d="M204.783 272.13C217.98 283.766 233.587 292.339 250.487 297.234L264.951 247.296C255.417 244.535 246.612 239.698 239.167 233.134L204.783 272.13Z" fill="#4B4613" fill-opacity="0.6" stroke="#4B4613" stroke-opacity="0.61" stroke-width="24" mask="url(#path-6-inside-6_0_1)"/>
<path d="M58.7727 307L43.7727 190.636H79L83.0909 262.227H84L114.682 190.636H142.409L149.455 262.455H150.364L178.091 190.636H213.318L159.682 307H129.455L120.591 242H119.682L89 307H58.7727Z" fill="#DBC819"/>
<path d="M396.682 305H351.227L370.545 188.636H414.182C426.152 188.636 436.152 191.042 444.182 195.852C452.212 200.663 457.913 207.538 461.284 216.477C464.655 225.417 465.318 236.061 463.273 248.409C461.303 260.303 457.307 270.473 451.284 278.92C445.299 287.367 437.648 293.826 428.33 298.295C419.049 302.765 408.5 305 396.682 305ZM387.25 278.182H398.727C404.485 278.182 409.617 277.178 414.125 275.17C418.67 273.125 422.458 269.716 425.489 264.943C428.557 260.133 430.773 253.561 432.136 245.227C433.424 237.348 433.386 231.269 432.023 226.989C430.659 222.67 428.064 219.678 424.239 218.011C420.413 216.307 415.47 215.455 409.409 215.455H397.705L387.25 278.182Z" fill="#DBC819"/>
</svg>
